<svg width="344" height="344" viewBox="0 0 344 344" fill="none" xmlns="http://www.w3.org/2000/svg">
<path d="M211 124C212.6 117.6 231.667 91.3333 241 79L257 58L309 96L325 168V224L269 305L155 325L67 292L81 224C123.667 193.333 209.4 130.4 211 124Z" fill="#D9D9D9" stroke="white"/>
<rect x="72" y="61" width="100" height="100" fill="#D9D9D9"/>
<path fill-rule="evenodd" clip-rule="evenodd" d="M149.454 1.53555C86.103 10.1236 31.19 54.5956 9.99996 114.474C-11.549 175.368 2.73795 242.968 46.943 289.268C63.763 306.885 76.534 316.293 97.454 326.478C153.019 353.53 215.473 349.052 267.923 314.255C283.939 303.629 303.609 283.959 314.235 267.943C353.859 208.218 353.856 135.674 314.227 76.0045C303.759 60.2445 283.854 40.2286 268.544 30.0706C231.901 5.75655 190.86 -4.07745 149.454 1.53555ZM128.954 85.9735V102.974H145.954H162.954V115.974V128.974H145.954H128.954V145.974V162.974H115.954H102.954V145.974V128.974H85.954H68.954V115.974V102.974H85.954H102.954V85.9735V68.9735H115.954H128.954V85.9735ZM276.092 81.2235C291.929 100.216 303.287 124.755 307.58 149.25C309.712 161.417 309.69 182.655 307.532 194.974C298.837 244.619 262.74 286.387 214.614 302.489C209.026 304.359 200.179 306.637 194.954 307.552C182.635 309.71 161.397 309.732 149.23 307.6C130.683 304.349 110.399 296.367 94.954 286.241C86.541 280.725 74.954 271.347 74.954 270.053C74.954 268.941 268.916 74.9735 270.028 74.9735C270.497 74.9735 273.226 77.7865 276.092 81.2235ZM171.954 227.974V240.974H214.954H257.954V227.974V214.974H214.954H171.954V227.974Z" fill="black"/>
</svg>
