<svg width="32" height="30" viewBox="0 0 32 30" fill="none" xmlns="http://www.w3.org/2000/svg">
<path fill-rule="evenodd" clip-rule="evenodd" d="M1.20842 0.403568C0.828629 0.61935 0.403611 0.964808 0.264125 1.17125C0.12464 1.3777 0.00828624 6.95378 0.00517888 13.5631L0 25.5798H7.11827H14.2362L14.028 24.8017C13.9137 24.374 13.8177 23.8293 13.8153 23.5914C13.8115 23.2629 12.4025 23.1592 7.93481 23.1592H2.0588L2.15167 15.1192L2.2442 7.07931H14.8463H27.4483L27.5481 9.70984C27.6406 12.1374 27.7152 12.3711 28.5142 12.7356C28.9903 12.9531 29.4502 13.1309 29.5361 13.1309C29.802 13.1309 29.6977 1.56996 29.4284 1.16607C28.7047 0.0809335 27.5678 -0.00966699 14.7827 0.000707118C5.83182 0.0083148 1.68799 0.131075 1.20842 0.403568ZM6.0666 10.9077C5.41198 11.5637 5.48552 12.0575 6.31519 12.5817C7.14209 13.1039 8.25936 11.9849 7.73801 11.1567C7.21459 10.3257 6.72156 10.2521 6.0666 10.9077ZM10.7169 10.8665C10.488 11.1428 10.3544 11.6484 10.42 11.9904C10.5253 12.5406 11.0145 12.6239 14.6778 12.7145C17.8107 12.7916 19.2784 12.6748 20.7157 12.2335C23.0159 11.5274 22.9913 11.5461 22.4489 10.8914C21.8209 10.1334 11.3429 10.1113 10.7169 10.8665ZM22.2694 14.133C18.5185 15.094 16.1079 18.1519 16.1079 21.9489C16.1079 28.2726 22.924 32.0958 28.2828 28.7778C33.595 25.4882 33.1237 17.6159 27.4438 14.7586C26.1211 14.0932 23.6094 13.7896 22.2694 14.133ZM5.88326 15.7078C5.52178 16.1439 5.52178 16.3424 5.88326 16.7784C6.57551 17.6139 7.76839 17.275 7.76839 16.2431C7.76839 15.2112 6.57551 14.8723 5.88326 15.7078ZM10.4828 15.7244C10.0416 16.8756 10.6182 17.2805 12.6991 17.2805C14.5404 17.2805 14.7834 17.1899 15.4822 16.2431L16.248 15.2057H13.4649C11.3091 15.2057 10.6365 15.3226 10.4828 15.7244ZM24.7898 17.6955C25.0177 17.9237 25.2041 18.6928 25.2041 19.4048C25.2041 20.6746 25.2311 20.7009 26.6363 20.8053C29.3442 21.0062 29.2585 23.1592 26.5431 23.1592C25.2183 23.1592 25.2041 23.1734 25.2041 24.5002C25.2041 27.2199 23.0545 27.3057 22.8539 24.5936C22.7497 23.1862 22.7234 23.1592 21.4556 23.1592C20.2627 23.1592 19.3347 22.6858 19.3347 22.0772C19.3347 21.443 20.5286 20.7386 21.6034 20.7386C22.7217 20.7386 22.7873 20.6728 22.7873 19.5528C22.7873 18.4763 23.4906 17.2805 24.1238 17.2805C24.2623 17.2805 24.5619 17.4672 24.7898 17.6955Z" fill="#E0D1D1"/>
</svg>
