<svg width="130" height="124" viewBox="0 0 130 124" fill="none" xmlns="http://www.w3.org/2000/svg">
<g filter="url(#filter0_d_996_305)">
<path d="M36.3201 93V85.41H37.4311V93H36.3201ZM39.3708 93V85.41H40.5918L44.2988 91.229V85.41H45.4098V93H44.1888L40.4818 87.181V93H39.3708ZM46.5825 85.641L46.7365 85.41H47.7045L49.7285 91.988H49.9595L51.9835 85.41H52.9515L53.0945 85.641L50.7735 93H48.9145L46.5825 85.641ZM54.2702 93V85.41H59.2862V86.422H55.3812V88.534H58.9562V89.546H55.3812V91.988H59.2862V93H54.2702ZM60.8015 93V85.41H62.0225L65.7295 91.229V85.41H66.8405V93H65.6195L61.9125 87.181V93H60.8015ZM68.0682 86.422V85.41H74.1182V86.422H71.6542V93H70.5322V86.422H68.0682ZM75.2364 91.262V87.148C75.2364 85.9893 75.8121 85.41 76.9634 85.41H79.5154C80.6668 85.41 81.2424 85.9893 81.2424 87.148V91.262C81.2424 92.4207 80.6668 93 79.5154 93H76.9634C75.8121 93 75.2364 92.4207 75.2364 91.262ZM76.3474 91.372C76.3474 91.7827 76.5564 91.988 76.9744 91.988H79.5044C79.9224 91.988 80.1314 91.7827 80.1314 91.372V87.038C80.1314 86.6273 79.9224 86.422 79.5044 86.422H76.9744C76.5564 86.422 76.3474 86.6273 76.3474 87.038V91.372ZM83.0701 93V85.41H86.6891C87.8404 85.41 88.4161 85.9893 88.4161 87.148V88.369C88.4161 89.3077 88.0311 89.8577 87.2611 90.019L88.6361 92.747L88.5041 93H87.5581L86.0841 90.096H84.1811V93H83.0701ZM84.1811 89.084H86.6781C87.0961 89.084 87.3051 88.875 87.3051 88.457V87.038C87.3051 86.6273 87.0961 86.422 86.6781 86.422H84.1811V89.084ZM89.3687 85.641L89.5117 85.41H90.4577L92.4047 89.073L94.3517 85.41H95.3087L95.4407 85.641L92.9657 90.228V93H91.8437V90.228L89.3687 85.641Z" fill="white"/>
<path d="M7.18238 107V99.41H8.40338L10.9444 104.8L13.4744 99.41H14.6954V107H13.7714V100.796L11.3734 105.9H10.5044L8.10638 100.796V107H7.18238ZM15.9085 106.802L18.3945 99.41H19.9125L22.3985 106.802L22.2665 107H21.5075L20.8805 105.086H17.4265L16.7995 107H16.0405L15.9085 106.802ZM17.7015 104.25H20.6055L19.2855 100.246H19.0215L17.7015 104.25ZM23.6072 107V99.41H24.6302L28.6232 105.57V99.41H29.5472V107H28.5242L24.5312 100.84V107H23.6072ZM30.7542 106.802L33.2402 99.41H34.7582L37.2442 106.802L37.1122 107H36.3532L35.7262 105.086H32.2722L31.6452 107H30.8862L30.7542 106.802ZM32.5472 104.25H35.4512L34.1312 100.246H33.8672L32.5472 104.25ZM38.3429 105.317V101.093C38.3429 99.971 38.9039 99.41 40.0259 99.41H43.3479L43.8429 99.795V100.246H40.0149C39.5162 100.246 39.2669 100.495 39.2669 100.994V105.416C39.2669 105.915 39.5162 106.164 40.0149 106.164H43.1389V103.436H41.2689V102.6H44.0629V107H40.0259C38.9039 107 38.3429 106.439 38.3429 105.317ZM45.822 107V99.41H50.772V100.246H46.746V102.6H50.442V103.436H46.746V106.164H50.772V107H45.822ZM52.3103 107V99.41H53.5313L56.0723 104.8L58.6023 99.41H59.8233V107H58.8993V100.796L56.5013 105.9H55.6323L53.2343 100.796V107H52.3103ZM61.8064 107V99.41H66.7564V100.246H62.7304V102.6H66.4264V103.436H62.7304V106.164H66.7564V107H61.8064ZM68.2947 107V99.41H69.3177L73.3107 105.57V99.41H74.2347V107H73.2117L69.2187 100.84V107H68.2947ZM75.4857 100.246V99.41H81.4697V100.246H78.9397V107H78.0157V100.246H75.4857ZM85.364 107V99.41H88.961C90.083 99.41 90.644 99.971 90.644 101.093V102.523C90.644 103.645 90.083 104.206 88.961 104.206H86.288V107H85.364ZM86.288 103.37H88.972C89.4707 103.37 89.72 103.121 89.72 102.622V100.994C89.72 100.495 89.4707 100.246 88.972 100.246H86.288V103.37ZM92.1827 105.317V101.093C92.1827 99.971 92.7437 99.41 93.8657 99.41H96.4397C97.5617 99.41 98.1227 99.971 98.1227 101.093V105.317C98.1227 106.439 97.5617 107 96.4397 107H93.8657C92.7437 107 92.1827 106.439 92.1827 105.317ZM93.1067 105.416C93.1067 105.915 93.3561 106.164 93.8547 106.164H96.4507C96.9494 106.164 97.1987 105.915 97.1987 105.416V100.994C97.1987 100.495 96.9494 100.246 96.4507 100.246H93.8547C93.3561 100.246 93.1067 100.495 93.1067 100.994V105.416ZM99.9949 107V99.41H103.592C104.714 99.41 105.275 99.971 105.275 101.093V102.303C105.275 103.256 104.868 103.799 104.054 103.931L105.495 106.78L105.374 107H104.593L103.064 103.986H100.919V107H99.9949ZM100.919 103.15H103.603C104.102 103.15 104.351 102.901 104.351 102.402V100.994C104.351 100.495 104.102 100.246 103.603 100.246H100.919V103.15ZM106.305 100.246V99.41H112.289V100.246H109.759V107H108.835V100.246H106.305ZM112.223 106.802L114.709 99.41H116.227L118.713 106.802L118.581 107H117.822L117.195 105.086H113.741L113.114 107H112.355L112.223 106.802ZM114.016 104.25H116.92L115.6 100.246H115.336L114.016 104.25ZM119.922 107V99.41H120.846V106.164H124.542V107H119.922Z" fill="#CFE2F1"/>
</g>
<g filter="url(#filter1_d_996_305)">
<path d="M60.1999 69.9996H44.3C42.8425 69.9996 41.5943 69.4811 40.5555 68.4441C39.5185 67.4053 39 66.1572 39 64.6997V27.5999C39 26.1424 39.5185 24.8943 40.5555 23.8555C41.5943 22.8185 42.8425 22.3 44.3 22.3H55.3636C55.8495 20.7541 56.799 19.4839 58.2124 18.4893C59.6257 17.4964 61.1715 17 62.8498 17C64.6165 17 66.1959 17.4964 67.588 18.4893C68.9784 19.4839 69.9165 20.7541 70.4023 22.3H81.3997C82.8572 22.3 84.1053 22.8185 85.1441 23.8555C86.1812 24.8943 86.6997 26.1424 86.6997 27.5999V40.8498H81.3997V27.5999H76.0997V30.2499C76.0997 31.7074 75.5812 32.9547 74.5442 33.9917C73.5054 35.0305 72.2573 35.5499 70.7998 35.5499H54.8999C53.4424 35.5499 52.1951 35.0305 51.1581 33.9917C50.1193 32.9547 49.5999 31.7074 49.5999 30.2499V27.5999H44.3V64.6997H60.1999V69.9996ZM72.1248 59.7309L85.2422 46.6135C85.728 46.1277 86.3463 45.8848 87.0972 45.8848C87.848 45.8848 88.4663 46.1277 88.9522 46.6135C89.438 47.0994 89.6809 47.7177 89.6809 48.4685C89.6809 49.2194 89.438 49.8377 88.9522 50.3235L73.9798 65.2959C73.4498 65.8259 72.8314 66.0909 72.1248 66.0909C71.4181 66.0909 70.7998 65.8259 70.2698 65.2959L62.7173 57.7435C62.2315 57.2576 61.9886 56.6393 61.9886 55.8885C61.9886 55.1376 62.2315 54.5193 62.7173 54.0335C63.2032 53.5477 63.8215 53.3047 64.5723 53.3047C65.3231 53.3047 65.9415 53.5477 66.4273 54.0335L72.1248 59.7309ZM62.8498 27.5999C63.6007 27.5999 64.2305 27.3455 64.7393 26.8367C65.2463 26.3297 65.4998 25.7008 65.4998 24.9499C65.4998 24.1991 65.2463 23.5693 64.7393 23.0605C64.2305 22.5535 63.6007 22.3 62.8498 22.3C62.099 22.3 61.4701 22.5535 60.963 23.0605C60.4543 23.5693 60.1999 24.1991 60.1999 24.9499C60.1999 25.7008 60.4543 26.3297 60.963 26.8367C61.4701 27.3455 62.099 27.5999 62.8498 27.5999Z" fill="white"/>
<path d="M86.2472 27.5999V40.3973H81.8522V27.5999V27.1474H81.3997H76.0997H75.6472V27.5999V30.2499C75.6472 31.5865 75.177 32.7189 74.2242 33.6717C73.2695 34.6264 72.1362 35.0974 70.7998 35.0974H54.8999C53.5635 35.0974 52.4312 34.6264 51.4784 33.672L51.4778 33.6714C50.5234 32.7186 50.0524 31.5863 50.0524 30.2499V27.5999V27.1474H49.5999H44.3H43.8475V27.5999V64.6997V65.1522H44.3H59.7473V69.5471H44.3C42.9633 69.5471 41.8299 69.0769 40.8752 68.1238C39.9226 67.1693 39.4525 66.0361 39.4525 64.6997V27.5999C39.4525 26.2634 39.9227 25.13 40.8755 24.1755C41.8301 23.2226 42.9634 22.7525 44.3 22.7525H55.3636H55.6957L55.7953 22.4356C56.2493 20.9912 57.135 19.8008 58.4728 18.8593C59.8122 17.9185 61.2676 17.4525 62.8498 17.4525C64.5254 17.4525 66.0121 17.9213 67.3247 18.8573C68.6399 19.7982 69.5159 20.9888 69.9706 22.4356L70.0702 22.7525H70.4023H81.3997C82.7361 22.7525 83.8694 23.2226 84.8239 24.1752C85.7769 25.1298 86.2472 26.2633 86.2472 27.5999ZM71.8048 60.0509L72.1248 60.3709L72.4447 60.0509L85.5622 46.9335C85.9548 46.5408 86.4541 46.3373 87.0972 46.3373C87.7402 46.3373 88.2395 46.5408 88.6322 46.9335C89.0249 47.3262 89.2284 47.8255 89.2284 48.4685C89.2284 49.1116 89.0249 49.6109 88.6322 50.0035L73.6598 64.9759C73.2089 65.4268 72.7036 65.6384 72.1248 65.6384C71.546 65.6384 71.0406 65.4268 70.5898 64.9759L63.0373 57.4235C62.6446 57.0308 62.4411 56.5315 62.4411 55.8885C62.4411 55.2454 62.6446 54.7461 63.0373 54.3535C63.43 53.9608 63.9292 53.7573 64.5723 53.7573C65.2154 53.7573 65.7147 53.9608 66.1073 54.3535L71.8048 60.0509ZM65.0598 22.7411L65.0587 22.74C64.4609 22.1443 63.7144 21.8475 62.8498 21.8475C61.9853 21.8475 61.2393 22.1443 60.6431 22.7405C60.0454 23.3382 59.7473 24.0849 59.7473 24.9499C59.7473 25.8144 60.0451 26.5602 60.6425 27.1561C61.2386 27.7544 61.9848 28.0524 62.8498 28.0524C63.7149 28.0524 64.4616 27.7544 65.0592 27.1567C65.6555 26.5605 65.9523 25.8145 65.9523 24.9499C65.9523 24.0854 65.6555 23.3389 65.0598 22.7411Z" stroke="#422335" stroke-width="0.905016"/>
</g>
<g filter="url(#filter2_d_996_305)">
<mask id="mask0_996_305" style="mask-type:alpha" maskUnits="userSpaceOnUse" x="62" y="44" width="29" height="22">
<rect x="62.5293" y="44.1504" width="28.2365" height="21.7204" fill="#CFE2F1"/>
</mask>
<g mask="url(#mask0_996_305)">
<path d="M61.1117 69.1747H46.1246C44.7508 69.1747 43.5743 68.6859 42.5951 67.7084C41.6177 66.7293 41.1289 65.5528 41.1289 64.179V29.2092C41.1289 27.8353 41.6177 26.6589 42.5951 25.6797C43.5743 24.7022 44.7508 24.2135 46.1246 24.2135H56.5531C57.011 22.7564 57.9061 21.5591 59.2383 20.6216C60.5705 19.6857 62.0275 19.2178 63.6095 19.2178C65.2747 19.2178 66.7635 19.6857 68.0757 20.6216C69.3862 21.5591 70.2704 22.7564 70.7284 24.2135H81.0944C82.4682 24.2135 83.6447 24.7022 84.6239 25.6797C85.6014 26.6589 86.0901 27.8353 86.0901 29.2092V41.6984H81.0944V29.2092H76.0987V31.707C76.0987 33.0808 75.61 34.2565 74.6325 35.2339C73.6533 36.2131 72.4769 36.7027 71.103 36.7027H56.116C54.7422 36.7027 53.5665 36.2131 52.589 35.2339C51.6099 34.2565 51.1203 33.0808 51.1203 31.707V29.2092H46.1246V64.179H61.1117V69.1747ZM72.352 59.4955L84.7163 47.1312C85.1742 46.6732 85.7571 46.4443 86.4648 46.4443C87.1725 46.4443 87.7553 46.6732 88.2133 47.1312C88.6712 47.5891 88.9002 48.1719 88.9002 48.8797C88.9002 49.5874 88.6712 50.1702 88.2133 50.6282L74.1005 64.741C73.6009 65.2406 73.0181 65.4903 72.352 65.4903C71.6859 65.4903 71.103 65.2406 70.6035 64.741L63.4846 57.6221C63.0267 57.1642 62.7977 56.5814 62.7977 55.8736C62.7977 55.1659 63.0267 54.5831 63.4846 54.1251C63.9426 53.6672 64.5254 53.4382 65.2331 53.4382C65.9408 53.4382 66.5237 53.6672 66.9816 54.1251L72.352 59.4955ZM63.6095 29.2092C64.3172 29.2092 64.9109 28.9694 65.3905 28.4898C65.8684 28.0119 66.1074 27.419 66.1074 26.7113C66.1074 26.0036 65.8684 25.4099 65.3905 24.9303C64.9109 24.4524 64.3172 24.2135 63.6095 24.2135C62.9018 24.2135 62.309 24.4524 61.831 24.9303C61.3515 25.4099 61.1117 26.0036 61.1117 26.7113C61.1117 27.419 61.3515 28.0119 61.831 28.4898C62.309 28.9694 62.9018 29.2092 63.6095 29.2092Z" fill="#CFE2F1"/>
</g>
</g>
<defs>
<filter id="filter0_d_996_305" x="3.18164" y="85.4102" width="125.359" height="29.5898" filterUnits="userSpaceOnUse" color-interpolation-filters="sRGB">
<feFlood flood-opacity="0" result="BackgroundImageFix"/>
<feColorMatrix in="SourceAlpha" type="matrix" values="0 0 0 0 0 0 0 0 0 0 0 0 0 0 0 0 0 0 127 0" result="hardAlpha"/>
<feOffset dy="4"/>
<feGaussianBlur stdDeviation="2"/>
<feComposite in2="hardAlpha" operator="out"/>
<feColorMatrix type="matrix" values="0 0 0 0 0 0 0 0 0 0 0 0 0 0 0 0 0 0 0.25 0"/>
<feBlend mode="normal" in2="BackgroundImageFix" result="effect1_dropShadow_996_305"/>
<feBlend mode="normal" in="SourceGraphic" in2="effect1_dropShadow_996_305" result="shape"/>
</filter>
<filter id="filter1_d_996_305" x="35.3799" y="17" width="57.9218" height="60.2401" filterUnits="userSpaceOnUse" color-interpolation-filters="sRGB">
<feFlood flood-opacity="0" result="BackgroundImageFix"/>
<feColorMatrix in="SourceAlpha" type="matrix" values="0 0 0 0 0 0 0 0 0 0 0 0 0 0 0 0 0 0 127 0" result="hardAlpha"/>
<feOffset dy="3.62006"/>
<feGaussianBlur stdDeviation="1.81003"/>
<feComposite in2="hardAlpha" operator="out"/>
<feColorMatrix type="matrix" values="0 0 0 0 0 0 0 0 0 0 0 0 0 0 0 0 0 0 0.25 0"/>
<feBlend mode="normal" in2="BackgroundImageFix" result="effect1_dropShadow_996_305"/>
<feBlend mode="normal" in="SourceGraphic" in2="effect1_dropShadow_996_305" result="shape"/>
</filter>
<filter id="filter2_d_996_305" x="59.3115" y="44.1504" width="32.8068" height="28.1564" filterUnits="userSpaceOnUse" color-interpolation-filters="sRGB">
<feFlood flood-opacity="0" result="BackgroundImageFix"/>
<feColorMatrix in="SourceAlpha" type="matrix" values="0 0 0 0 0 0 0 0 0 0 0 0 0 0 0 0 0 0 127 0" result="hardAlpha"/>
<feOffset dy="3.21783"/>
<feGaussianBlur stdDeviation="1.60892"/>
<feComposite in2="hardAlpha" operator="out"/>
<feColorMatrix type="matrix" values="0 0 0 0 0 0 0 0 0 0 0 0 0 0 0 0 0 0 0.25 0"/>
<feBlend mode="normal" in2="BackgroundImageFix" result="effect1_dropShadow_996_305"/>
<feBlend mode="normal" in="SourceGraphic" in2="effect1_dropShadow_996_305" result="shape"/>
</filter>
</defs>
</svg>
