<svg width="34" height="29" viewBox="0 0 34 29" fill="none" xmlns="http://www.w3.org/2000/svg">
<path fill-rule="evenodd" clip-rule="evenodd" d="M0.72355 0.716217C0.325598 1.11014 0 1.75473 0 2.14865C0 3.14133 1.26513 4.2973 2.35154 4.2973C3.43795 4.2973 4.70308 3.14133 4.70308 2.14865C4.70308 1.15597 3.43795 0 2.35154 0C1.8541 0 1.1215 0.322298 0.72355 0.716217ZM8.32083 2.14865V3.58109H19.7168H31.1127V2.14865V0.716217H19.7168H8.32083V2.14865ZM0.72355 9.66893C0.325598 10.0629 0 10.7074 0 11.1014C0 12.094 1.26513 13.25 2.35154 13.25C3.43795 13.25 4.70308 12.094 4.70308 11.1014C4.70308 10.1087 3.43795 8.95272 2.35154 8.95272C1.8541 8.95272 1.1215 9.27501 0.72355 9.66893ZM8.32083 11.1014V12.5338H12.8506C17.1243 12.5338 17.4611 12.4812 18.8029 11.602C19.5851 11.0899 20.8433 10.4521 21.5991 10.1853C22.8381 9.74772 22.2553 9.69866 15.6468 9.68469L8.32083 9.66893V11.1014ZM22.4337 13.0051C19.8647 13.8148 17.3652 17.2913 17.3652 20.0541C17.3652 22.9361 19.8904 26.3167 22.6529 27.1339C24.6228 27.7165 25.5768 27.6897 27.6414 26.9935L29.3635 26.4127L30.7021 27.7062L32.0406 29L33.0203 28.0302L34 27.0605L32.6929 25.7355L31.3862 24.4105L31.973 22.7059C33.0344 19.6218 32.4661 17.0818 30.2155 14.8543C28.0748 12.7354 25.346 12.0869 22.4337 13.0051ZM28.0738 16.9744C29.1573 18.0469 29.3038 18.4139 29.3038 20.0541C29.3038 22.7553 27.6914 24.3514 24.9625 24.3514C23.3056 24.3514 22.9347 24.2064 21.8512 23.1338C20.0565 21.3572 20.0565 18.7509 21.8512 16.9744C22.9347 15.9018 23.3056 15.7568 24.9625 15.7568C26.6194 15.7568 26.9902 15.9018 28.0738 16.9744ZM0.72355 18.6217C0.325598 19.0156 0 19.6602 0 20.0541C0 21.0468 1.26513 22.2027 2.35154 22.2027C3.43795 22.2027 4.70308 21.0468 4.70308 20.0541C4.70308 19.0614 3.43795 17.9054 2.35154 17.9054C1.8541 17.9054 1.1215 18.2277 0.72355 18.6217ZM8.32083 20.0541V21.4865H11.3959H14.471V20.0541V18.6217H11.3959H8.32083V20.0541Z" fill="#E0D1D1"/>
</svg>
