<svg width="36" height="29" viewBox="0 0 36 29" fill="none" xmlns="http://www.w3.org/2000/svg">
<path fill-rule="evenodd" clip-rule="evenodd" d="M0.153257 0.604322C-0.332955 1.84688 0.329427 2.41681 2.25908 2.41681C3.80847 2.41681 4.19572 2.57188 4.51931 3.32306C4.73408 3.82169 5.54512 7.51474 6.32167 11.5304C7.09821 15.5457 8.01889 19.3729 8.36795 20.035C9.55473 22.2857 10.8577 22.5556 20.5372 22.5556C30.2167 22.5556 31.5197 22.2857 32.7065 20.035C33.4687 18.5887 36.2874 4.5777 35.9761 3.78182C35.795 3.31903 33.274 3.22236 21.416 3.22236H7.0748L6.81897 2.22267C6.67811 1.67289 6.02066 0.94789 5.35745 0.611572C3.75673 -0.200423 0.46987 -0.204854 0.153257 0.604322ZM33.2637 6.14249C33.2621 6.4196 32.7241 9.35905 32.0687 12.6747C31.1054 17.5503 30.7046 18.8404 29.9736 19.4212C29.1716 20.0584 28.1105 20.1389 20.5372 20.1389C12.964 20.1389 11.9028 20.0584 11.1008 19.4212C10.3699 18.8404 9.96908 17.5503 9.00569 12.6747C8.35029 9.35905 7.81233 6.4196 7.81069 6.14249C7.80782 5.75059 10.6249 5.63902 20.5372 5.63902C30.4495 5.63902 33.2666 5.75059 33.2637 6.14249ZM16.5847 8.64574C16.4516 8.98568 16.4516 9.54231 16.5847 9.88226C16.7847 10.3934 17.5575 10.4808 21.0431 10.3857C25.2359 10.2717 25.2597 10.2653 25.2597 9.264C25.2597 8.2627 25.2359 8.25625 21.0431 8.14227C17.5575 8.04721 16.7847 8.13461 16.5847 8.64574ZM13.1455 24.9722C12.6938 25.4153 12.3242 26.1403 12.3242 26.5833C12.3242 27.6209 13.7302 29 14.7881 29C15.8459 29 17.252 27.6209 17.252 26.5833C17.252 26.1403 16.8824 25.4153 16.4307 24.9722C15.979 24.5292 15.2398 24.1667 14.7881 24.1667C14.3364 24.1667 13.5972 24.5292 13.1455 24.9722ZM24.6437 24.9722C24.192 25.4153 23.8224 26.1403 23.8224 26.5833C23.8224 27.0264 24.192 27.7514 24.6437 28.1944C25.0955 28.6375 25.8346 29 26.2863 29C26.7381 29 27.4772 28.6375 27.929 28.1944C28.3807 27.7514 28.7503 27.0264 28.7503 26.5833C28.7503 26.1403 28.3807 25.4153 27.929 24.9722C27.4772 24.5292 26.7381 24.1667 26.2863 24.1667C25.8346 24.1667 25.0955 24.5292 24.6437 24.9722Z" fill="#E0D1D1"/>
</svg>
