<svg width="26" height="26" viewBox="0 0 26 26" fill="none" xmlns="http://www.w3.org/2000/svg">
<path d="M7.41795 16.3522H8.59234L9.00858 15.9508C7.55174 14.2561 6.67467 12.056 6.67467 9.66266C6.67467 4.3259 11.0006 0 16.3373 0C21.6741 0 26 4.3259 26 9.66266C26 14.9994 21.6741 19.3253 16.3373 19.3253C13.944 19.3253 11.7439 18.4483 10.0492 16.9914L9.6478 17.4077V18.582L2.21498 26L0 23.785L7.41795 16.3522ZM16.3373 16.3522C20.0389 16.3522 23.0269 13.3642 23.0269 9.66266C23.0269 5.96112 20.0389 2.97313 16.3373 2.97313C12.6358 2.97313 9.6478 5.96112 9.6478 9.66266C9.6478 13.3642 12.6358 16.3522 16.3373 16.3522Z" fill="white"/>
</svg>
